<svg width="16" height="16" viewBox="0 0 16 16" fill="none" xmlns="http://www.w3.org/2000/svg">
<path d="M8 15.0581C12.021 15.0581 15.3462 11.7329 15.3462 7.71191C15.3462 3.68359 12.021 0.365723 7.99268 0.365723C3.97168 0.365723 0.653809 3.68359 0.653809 7.71191C0.653809 11.7329 3.979 15.0581 8 15.0581ZM7.83887 12.5312C7.83887 12.4434 7.86084 12.3701 7.94873 12.1138C8.02197 11.8794 8.13184 11.5718 8.12451 11.2275C8.10986 10.7954 7.78027 10.4805 6.90137 9.85791C6.74023 9.74805 6.5791 9.63086 6.41797 9.51367C6.16895 9.32324 6.06641 9.15479 6.06641 8.95703C6.06641 8.85449 6.08838 8.74463 6.16162 8.51025C6.23486 8.27588 6.27148 8.1001 6.27148 7.98291C6.27148 7.68262 6.125 7.47754 5.76611 7.17725C5.72217 7.14062 5.68555 7.104 5.63428 7.06738L4.4624 6.02002C3.0708 4.7749 2.95361 3.92529 3.51758 2.93652C4.68945 1.83057 6.27148 1.14941 7.99268 1.14941C9.20117 1.14941 10.3438 1.48633 11.3179 2.06494C10.9297 3.00244 9.27441 3.78613 8.4248 4.23291C8.28564 4.29883 8.22705 4.44531 8.34424 4.60645C8.65918 5.03857 8.78369 5.22168 8.78369 5.40479C8.78369 5.55859 8.6665 5.67578 8.5127 5.67578C8.2417 5.67578 7.45068 4.99463 7.05518 4.99463C6.59375 4.99463 6.06641 5.48535 6.06641 5.91748C6.06641 6.54736 7.38477 7.646 8.04395 7.646C8.46143 7.646 9.1792 7.11865 9.4209 7.11865C9.94092 7.11865 11.3398 8.29053 11.3398 8.72266C11.3398 9.62354 8.9668 12.8901 8.29297 12.8901C8.09521 12.8901 7.83887 12.707 7.83887 12.5312ZM8 14.2744C4.40381 14.2744 1.4375 11.3081 1.4375 7.71191C1.4375 6.34229 1.8623 5.06787 2.59473 4.01318C2.60938 4.75293 3.02686 5.57324 4.05957 6.48145L5.22412 7.51416C5.49512 7.75586 5.65625 7.86572 5.65625 7.99756C5.65625 8.18066 5.45117 8.5249 5.45117 8.95703C5.45117 9.35986 5.64893 9.7041 6.05176 10.0044C6.97461 10.7002 7.50928 11.0151 7.50928 11.2422C7.5166 11.7036 7.22363 12.0771 7.22363 12.5605C7.22363 13.022 7.80225 13.5054 8.30762 13.5054C9.31836 13.5054 11.9551 10.0337 11.9551 8.72266C11.9551 7.94629 10.2998 6.51074 9.4209 6.51074C9.02539 6.51074 8.43213 7.03076 8.04395 7.03076C7.67773 7.03076 6.68164 6.23975 6.68164 5.91748C6.68164 5.771 6.88672 5.60986 7.05518 5.60986C7.3042 5.60986 8.02197 6.29102 8.44678 6.29102C9.03271 6.29102 9.39893 5.91016 9.39893 5.30957C9.39893 5.08984 9.31104 4.88477 9.09863 4.58447C9.875 4.18896 11.3618 3.39795 11.8379 2.40918C13.4858 3.61035 14.5625 5.54395 14.5625 7.71191C14.5625 11.3081 11.5962 14.2744 8 14.2744Z" fill="#EAEAEA"/>
</svg>
